# xmcd
#
# Track frame offsets: 
#        150
#        13078
#        23889
#        37741
#        53601
#        65689
#        81918
#        93278
#        104507
#        114805
#        124751
#        136485
#        156058
#        170288
#        182701
#        196968
#        205477
#        217211
#        226740
#        237514
#        251188
#        266249
#        276460
#        286528
#        301029
#
# Disc length: 4176 seconds
#
# Revision: 0
# Processed by: cddbd v1.5.2PL0 Copyright (c) Steve Scherf et al.
# Submitted via: ExactAudioCopyFreeDBPlugin 1.0
#
DISCID=63104e19
DTITLE=Various Artist - Country Gold 60. and 70. léta
DYEAR=2018
DGENRE=Country
TTITLE0=Pavel Bobek - Oh, Ruby, nechtěj mi lásku brát
TTITLE1=Michal Tučný - Rovnou, tady rovnou
TTITLE2=Rangers - Colorado
TTITLE3=Jiří Grossmann - Blizzard
TTITLE4=Ladislav Vodička - Sluneční spár
TTITLE5=Petr Spálený - Kdybych já byl kovářem
TTITLE6=KTO - Zrádný banjo
TTITLE7=Karel Zich - Kovbojův nářek
TTITLE8=Rangers - Ta zem je tvá zem
TTITLE9=Mustangové - Buráky
TTITLE10=Mirek Hoffman - Čekání na vlak
TTITLE11=Miroslav Černý - Balíček karet
TTITLE12=Eva Olmerová - Čekej tiše
TTITLE13=Rangers - Kingston Town
TTITLE14=Michal Tučný - Vlak půlnoční
TTITLE15=Greenhorns - A tak já zas v tom lítám
TTITLE16=Ladislav Vodička - Je to zlé
TTITLE17=Naďa Urbánková, Jiří Grossmann - Drahý můj
TTITLE18=Fešáci - Hej, chlapče s tamburínou
TTITLE19=Michal Tučný, Josef Šimek - T jako Texas
TTITLE20=Rangers - Smutný psaní
TTITLE21=Mirek Hoffmann - Hej Joe
TTITLE22=Naďa Urbánková - Půlnoc je období zlé
TTITLE23=Karel Kahovec - Galvestone
TTITLE24=Pavel Bobek - Veď mě dál, cesto má
EXTD=
EXTT0=
EXTT1=
EXTT2=
EXTT3=
EXTT4=
EXTT5=
EXTT6=
EXTT7=
EXTT8=
EXTT9=
EXTT10=
EXTT11=
EXTT12=
EXTT13=
EXTT14=
EXTT15=
EXTT16=
EXTT17=
EXTT18=
EXTT19=
EXTT20=
EXTT21=
EXTT22=
EXTT23=
EXTT24=
PLAYORDER=
